<svg id="Layer_1" enable-background="new 0 0 512 512" height="512" viewBox="0 0 512 512" width="512" xmlns="http://www.w3.org/2000/svg"><g><g id="XMLID_95_"><g id="XMLID_508_"><g id="XMLID_510_"><g id="XMLID_511_"><g id="XMLID_512_"><g id="XMLID_513_"><g id="XMLID_514_"><g id="XMLID_549_"><g id="XMLID_550_"><g id="XMLID_633_"><g id="XMLID_650_"><g id="XMLID_671_"><g id="XMLID_672_"><g id="XMLID_673_"><circle id="XMLID_674_" cx="256" cy="256" fill="#005fd2" r="256"/></g></g></g></g></g></g></g></g></g></g></g></g></g></g><path d="m512 256c0-11.503-.772-22.824-2.242-33.925l-128.662-128.662s-77.83-43.413-125.096-43.413c-48.173 0-126.955 45.393-126.955 45.393l208.49 208.406-20.66 4.452-141.246-141.007-21.129 135.256-76.315 105.309 88.275 88.08c27.873 10.408 58.039 16.111 89.54 16.111 141.385 0 256-114.615 256-256z" fill="#00459f"/><g><g><g><g><path d="m359.338 116.984c-26.462-28.945-64.127-45.547-103.338-45.547s-76.876 16.602-103.338 45.547l-23.617-21.592c32.509-35.56 78.782-55.955 126.955-55.955s94.446 20.395 126.955 55.955z" fill="#fff"/></g><g><g><path d="m382.96 95.392-23.62 21.59c-26.46-28.94-64.13-45.54-103.34-45.54v-32c48.17 0 94.45 20.39 126.96 55.95z" fill="#e9edf5"/></g></g><g><path d="m297.151 153.445c-11.814-9.371-26.044-14.324-41.151-14.324s-29.338 4.953-41.151 14.324l-19.887-25.07c17.279-13.706 38.956-21.254 61.038-21.254s43.759 7.548 61.038 21.254z" fill="#fff"/></g><g><path d="m317.04 128.372-19.89 25.07c-11.81-9.37-26.04-14.32-41.15-14.32v-32c22.08 0 43.76 7.55 61.04 21.25z" fill="#e9edf5"/></g></g><g><path d="m191.67 323.85h-59.43l7.42-99.52.21-2.83h44.17l.21 2.83z" fill="#cdd2e0"/><path d="m379.76 323.85h-59.43l7.42-99.52.21-2.83h44.17l.21 2.83z" fill="#9eb2b7"/></g><path d="m400.631 420.693h-289.262c-27.16 0-49.178-22.017-49.178-49.177v-22.987c0-27.16 22.018-49.178 49.178-49.178h289.261c27.16 0 49.178 22.018 49.178 49.178v22.987c0 27.16-22.017 49.177-49.177 49.177z" fill="#fff"/><path d="m449.81 348.53v22.99c0 27.16-22.02 49.17-49.18 49.17h-144.63v-121.34h144.63c27.16 0 49.18 22.02 49.18 49.18z" fill="#e9edf5"/><g><ellipse cx="126.333" cy="360.022" fill="#fedd55" rx="17.597" ry="17.597" transform="matrix(.707 -.707 .707 .707 -217.572 194.779)"/><ellipse cx="196.72" cy="360.022" fill="#436375" rx="17.597" ry="17.597" transform="matrix(.23 -.973 .973 .23 -198.868 468.764)"/></g><path d="m372.783 338.426h19.434c6.561 0 11.88 5.319 11.88 11.88v19.434c0 6.561-5.319 11.88-11.88 11.88h-19.434c-6.561 0-11.88-5.319-11.88-11.88v-19.434c0-6.562 5.319-11.88 11.88-11.88z" fill="#e4186b"/></g><path d="m180.86 178.95 3.39 45.38h-44.59l3.39-45.38c.74-9.9 8.98-17.55 18.91-17.55 9.92 0 18.17 7.65 18.9 17.55z" fill="#fff"/><path d="m372.34 224.33h-44.59l3.39-45.38c.73-9.9 8.98-17.55 18.9-17.55 9.93 0 18.17 7.65 18.91 17.55z" fill="#e9edf5"/></g></g></svg>