<svg id="Capa_1" enable-background="new 0 0 512 512" height="512" viewBox="0 0 512 512" width="512" xmlns="http://www.w3.org/2000/svg"><g><g><g><g><g><g><circle cx="256" cy="256" fill="#95e0db" r="256"/></g></g></g></g></g><path d="m512 256c0-8.655-.43-17.209-1.269-25.644l-89.634-89.633-3.244 5.025-25.103-25.103-39.476 46.92-54.126-54.126-14.188 42.108-42.108-42.108-12.009 40.812-33.606-33.605-84.267 49.913-22.068 200.718 139.455 139.455c8.434.838 16.988 1.268 25.643 1.268 141.385 0 256-114.615 256-256z" fill="#6ec2b8"/><g><path d="m285.321 140.723v30h105.777v170.554h-270.196v-170.554h91.95v26.954h30v-84.238h-30v27.284h-121.95v230.554h330.196v-230.554z" fill="#717687"/><path d="m299.148 140.723v-27.284h-30v84.238h30v-26.954h91.95v170.554h-135.098v30h165.098v-230.554z" fill="#575a65"/></g><g><path d="m194.55 321.712h122.899v69.485h-122.899z" fill="#e06a24"/></g><g><path d="m256 321.712h61.45v69.485h-61.45z" fill="#d24611"/></g><g><g><g><g><g><g><g><circle cx="158.246" cy="155.558" fill="#e38120" r="52.344"/></g></g></g></g></g></g><g><path d="m126.402 140.559h63.688v30h-63.688z" fill="#fff"/></g></g><g><g><g><g><g><g><g><circle cx="353.754" cy="155.558" fill="#db5e1e" r="52.344"/></g></g></g></g></g></g><path d="m385.598 140.559h-16.845v-16.846l-30 .001v16.845h-16.843v30h16.844l.001 16.845 30-.001-.001-16.844h16.844z" fill="#e9ecf4"/></g></g></svg>