<?xml version="1.0" encoding="iso-8859-1"?>
<!-- Generator: Adobe Illustrator 19.0.0, SVG Export Plug-In . SVG Version: 6.00 Build 0)  -->
<svg version="1.1" id="Capa_1" xmlns="http://www.w3.org/2000/svg" xmlns:xlink="http://www.w3.org/1999/xlink" x="0px" y="0px"
	 viewBox="0 0 436.907 436.907" style="enable-background:new 0 0 436.907 436.907;" xml:space="preserve">
<circle style="fill:#EA8953;" cx="218.453" cy="218.453" r="218.453"/>
<path style="opacity:0.1;enable-background:new    ;" d="M428.456,278.588L271.332,121.465
	c-14.37-16.716-36.511-26.558-60.827-23.87c-31.902,3.527-57.639,29.142-61.303,61.028c-2.34,20.356,4.1,39.208,16.018,53.275
	c15.44,18.224,24.658,40.892,24.658,64.778v5.443v6.018c-2.123,0.021-3.84,1.741-3.84,3.869v0c0,1.217,0.596,2.257,1.473,2.968
	l-0.053,0.017l2.42,2.42v6.229c-2.123,0.021-3.84,1.741-3.84,3.869c0,1.16,0.535,2.17,1.342,2.88l-0.06-0.008l2.558,2.558v6.205
	c-2.123,0.021-3.84,1.741-3.84,3.869c0,1.207,0.586,2.243,1.451,2.954l-0.025,0.045l3.571,3.571c0.02,0.021,0.04,0.041,0.061,0.061
	l96.146,96.146C355.396,403.188,408.626,347.959,428.456,278.588z"/>
<path style="fill:#64798A;" d="M200.577,330.802L200.577,330.802c0,4.943,7.412,8.95,16.554,8.95h2.643
	c9.143,0,16.554-4.007,16.554-8.95v0H200.577z"/>
<path style="fill:#F6C358;" d="M210.506,97.595c-31.902,3.527-57.639,29.142-61.304,61.029c-2.339,20.356,4.1,39.208,16.018,53.275
	c15.44,18.224,24.658,40.892,24.658,64.777v5.444h57.15v-4.682c0-24.278,9.396-47.273,24.964-65.902
	c10.106-12.093,16.188-27.66,16.188-44.654C288.18,125.754,252.573,92.944,210.506,97.595z"/>
<path style="fill:#D5D6DB;" d="M189.878,282.119v44.649c0,2.228,1.807,4.034,4.034,4.034h49.082c2.228,0,4.034-1.806,4.034-4.034
	v-44.649H189.878z"/>
<g>
	<path style="fill:#EBF0F3;" d="M246.992,288.13h-57.078c-2.141,0-3.876,1.735-3.876,3.876v0c0,2.141,1.735,3.876,3.876,3.876
		h57.078c2.141,0,3.876-1.735,3.876-3.876v0C250.868,289.865,249.133,288.13,246.992,288.13z"/>
	<path style="fill:#EBF0F3;" d="M246.992,303.634h-57.078c-2.141,0-3.876,1.735-3.876,3.876c0,2.141,1.735,3.876,3.876,3.876h57.078
		c2.141,0,3.876-1.735,3.876-3.876C250.868,305.37,249.133,303.634,246.992,303.634z"/>
	<path style="fill:#EBF0F3;" d="M246.992,319.138h-57.078c-2.141,0-3.876,1.735-3.876,3.876s1.735,3.876,3.876,3.876h57.078
		c2.141,0,3.876-1.735,3.876-3.876S249.133,319.138,246.992,319.138z"/>
</g>
<g>
</g>
<g>
</g>
<g>
</g>
<g>
</g>
<g>
</g>
<g>
</g>
<g>
</g>
<g>
</g>
<g>
</g>
<g>
</g>
<g>
</g>
<g>
</g>
<g>
</g>
<g>
</g>
<g>
</g>
</svg>
